<svg aria-hidden="true" style="width:0;height:0;position:absolute;overflow:hidden" xmlns="http://www.w3.org/2000/svg"><defs><symbol id="telegram" viewBox="0 0 32 32"><path fill="#29b6f6" style="fill:var(--color3,#29b6f6)" d="M16 2.667c-7.333 0-13.333 6-13.333 13.333s6 13.333 13.333 13.333 13.333-6 13.333-13.333S23.333 2.667 16 2.667z"/><path fill="#fff" style="fill:var(--color1,#fff)" d="M22.667 10 20.2 22.733s-.133.6-.8.6c-.4 0-.6-.2-.6-.2l-5.467-4.467-2.667-1.333-3.4-.933s-.6-.2-.6-.667c0-.4.6-.6.6-.6l14.2-5.667s.467-.133.733-.133c.2 0 .4.067.4.333.067.2.067.333.067.333z"/><path fill="#b0bec5" style="fill:var(--color4,#b0bec5)" d="M15.333 20.333 13.066 22.6s-.067.067-.2.067h-.133l.667-4 1.933 1.667z"/><path fill="#cfd8dc" style="fill:var(--color5,#cfd8dc)" d="M19.933 12.133c-.133-.133-.333-.2-.467-.067l-8.8 5.267s1.4 3.933 1.6 4.6.4.667.4.667l.667-4 6.533-6.067c.133-.067.2-.267.067-.4z"/></symbol><symbol id="whatsapp" viewBox="0 0 32 32"><path fill="#f2faff" style="fill:var(--color6,#f2faff)" d="m3.377 23.438-.083-.145a14.742 14.742 0 0 1-1.966-7.364c.003-8.122 6.614-14.73 14.735-14.73 3.941.002 7.642 1.535 10.424 4.319s4.314 6.486 4.314 10.422c-.004 8.122-6.614 14.731-14.736 14.731a14.784 14.784 0 0 1-7.049-1.792l-.139-.077-7.508 1.968 2.009-7.334z"/><path fill="#788b9c" style="fill:var(--color7,#788b9c)" d="M16.062 1.6c3.833.001 7.434 1.494 10.141 4.202s4.197 6.31 4.197 10.139c-.004 7.902-6.434 14.331-14.342 14.331a14.353 14.353 0 0 1-6.851-1.744l-.279-.152-6.99 1.833 1.869-6.827-.166-.289a14.325 14.325 0 0 1-1.913-7.164c.003-7.901 6.434-14.33 14.335-14.33zm0-.8C7.72.8.93 7.588.926 15.93a15.085 15.085 0 0 0 2.02 7.564L.8 31.336l8.024-2.104c2.21 1.206 4.7 1.84 7.234 1.842h.006c8.342 0 15.132-6.788 15.136-15.131 0-4.043-1.573-7.846-4.43-10.706S20.112.803 16.063.801z"/><path fill="#79ba7e" style="fill:var(--color8,#79ba7e)" d="M15.996 28a12.03 12.03 0 0 1-5.733-1.458l-1.146-.626-3.856 1.011.664-2.424.362-1.325-.687-1.19A11.992 11.992 0 0 1 4 15.994C4.003 9.38 9.386 4 15.998 4a11.92 11.92 0 0 1 8.488 3.518A11.928 11.928 0 0 1 28 16.004C27.997 22.618 22.614 28 15.996 28z"/><path fill="#fff" style="fill:var(--color1,#fff)" d="M22.624 18.95c-.36-.179-2.128-1.05-2.457-1.17-.33-.121-.57-.179-.81.179-.24.36-.929 1.17-1.138 1.409s-.419.27-.779.09-1.519-.56-2.892-1.785c-1.07-.953-1.791-2.13-2.001-2.49s-.023-.554.158-.734c.162-.162.36-.42.539-.63s.24-.36.36-.6c.121-.24.06-.45-.03-.63s-.81-1.95-1.11-2.669c-.291-.701-.589-.606-.81-.617-.21-.011-.45-.012-.689-.012s-.63.09-.958.45-1.258 1.23-1.258 2.999 1.289 3.48 1.468 3.719c.179.24 2.535 3.871 6.144 5.429.858.37 1.529.591 2.05.758.861.274 1.646.235 2.266.142.691-.103 2.128-.87 2.427-1.709s.3-1.56.21-1.709c-.089-.154-.328-.244-.689-.423z"/></symbol><symbol id="viber" viewBox="0 0 32 32"><path fill="#fff" style="fill:var(--color1,#fff)" d="M16 3.333c-1.759 0-7.113 0-10.073 2.703C4.164 7.792 3.334 10.329 3.334 14v2c0 3.671.831 6.208 2.614 7.984.888.81 2.099 1.457 3.579 1.905l.474.143v3.552c0 .417.121.417.161.417.082 0 .213-.026.463-.247.06-.059.5-.535 2.64-2.933l.216-.242.323.021a35.23 35.23 0 0 0 2.197.068c1.759 0 7.113 0 10.073-2.703 1.762-1.756 2.593-4.293 2.593-7.963v-2c0-3.671-.831-6.208-2.614-7.984C23.114 3.335 17.76 3.335 16 3.335z"/><path fill="#7e57c2" style="fill:var(--color2,#7e57c2)" d="M22.301 19.236c-.741-.624-1.083-.813-2.105-1.427-.426-.255-1.075-.476-1.416-.476-.233 0-.511.178-.682.349-.437.437-.581.985-1.347.985-.75 0-2.06-.763-3-1.75-.987-.94-1.75-2.25-1.75-3 0-.767.537-.92.975-1.358.171-.17.359-.449.359-.681 0-.341-.221-.98-.476-1.406-.614-1.023-.802-1.365-1.427-2.105-.211-.251-.452-.365-.704-.366-.426-.001-.985.211-1.364.493-.569.425-1.165 1.003-1.324 1.723a1.752 1.752 0 0 0-.038.295c-.031.75.264 1.511.582 2.156.749 1.519 1.739 2.99 2.817 4.303.345.42.72.811 1.109 1.188.377.388.768.763 1.188 1.109 1.313 1.078 2.784 2.069 4.303 2.817.639.315 1.391.604 2.133.583.106-.003.212-.015.318-.039.72-.159 1.298-.755 1.723-1.324.282-.379.493-.937.493-1.364-.001-.252-.115-.493-.366-.704zM22.667 16a.667.667 0 0 1-.667-.667v-.667c0-3.308-2.692-6-6-6a.667.667 0 0 1 0-1.334c4.043 0 7.333 3.29 7.333 7.333v.667a.667.667 0 0 1-.667.667zm-4.095-1.333a.667.667 0 0 1-.645-.499A1.992 1.992 0 0 0 16.5 12.74a.667.667 0 0 1 .334-1.292 3.33 3.33 0 0 1 2.383 2.383.666.666 0 0 1-.646.835z"/><path fill="#7e57c2" style="fill:var(--color2,#7e57c2)" d="M20.667 15.333a.667.667 0 0 1-.667-.667 3.996 3.996 0 0 0-3.785-3.991.667.667 0 1 1 .07-1.332 5.328 5.328 0 0 1 5.049 5.322.667.667 0 0 1-.667.667z"/><path fill="#7e57c2" style="fill:var(--color2,#7e57c2)" d="M16 2.667c-3 0-7.675.276-10.523 2.877C3.464 7.549 2.666 10.361 2.666 14c0 .301-.001.637.001 1-.003.362-.001.698-.001.999 0 3.639.797 6.451 2.811 8.456 1.084.99 2.436 1.641 3.856 2.071v3.057c0 1.064.699 1.083.827 1.083h.006c.329-.001.614-.163.899-.416.107-.095 1.347-1.477 2.695-2.987.803.051 1.565.07 2.239.07 3 0 7.674-.277 10.523-2.878 2.013-2.004 2.811-4.817 2.811-8.456 0-.301.001-.637-.001-1 .003-.363.001-.698.001-1 0-3.639-.797-6.451-2.811-8.456C23.674 2.942 19 2.666 16 2.666zm11.333 13.1v.232c0 3.271-.697 5.499-2.191 7.008-2.588 2.326-7.518 2.326-9.143 2.326-.495 0-1.297-.001-2.245-.067-.263.296-3.088 3.455-3.088 3.455v-3.909c-1.403-.337-2.789-.889-3.809-1.805-1.494-1.509-2.191-3.738-2.191-7.009v-.232c0-.234-.001-.487.001-.782a63.867 63.867 0 0 1-.001-.753v-.232c0-3.271.697-5.499 2.191-7.008C9.444 4.665 14.375 4.665 16 4.665s6.555 0 9.142 2.326c1.495 1.509 2.191 3.737 2.191 7.008v.232c0 .234.001.487-.001.782.002.267.002.519.002.753z"/></symbol><symbol id="vector" viewBox="0 0 20 32"><path d="M17 0H3C1.346 0 0 1.346 0 3v26c0 1.654 1.346 3 3 3h14c1.654 0 3-1.346 3-3V3c0-1.654-1.346-3-3-3zM3 2h14a1 1 0 0 1 1 1v21H2V3a1 1 0 0 1 1-1zm14 28H3a1 1 0 0 1-1-1v-3h16v3a1 1 0 0 1-1 1z"/></symbol><symbol id="close" viewBox="0 0 32 32"><path d="m26.667 7.303-1.97-1.97-7.808 7.808-7.808-7.808-1.97 1.97 7.808 7.808-7.808 7.808 1.97 1.97 7.808-7.808 7.808 7.808 1.97-1.97-7.808-7.808 7.808-7.808z"/></symbol><symbol id="person" viewBox="0 0 32 32"><path d="M16 16a5.333 5.333 0 1 0 0-10.666A5.333 5.333 0 1 0 16 16zm0 2.667c-3.561 0-10.667 1.787-10.667 5.333v1.333c0 .732.599 1.333 1.333 1.333h18.667c.732 0 1.333-.601 1.333-1.333V24c0-3.547-7.108-5.333-10.667-5.333z"/></symbol><symbol id="phone" viewBox="0 0 32 32"><path d="m24.882 19.774-3.268-.373a2.552 2.552 0 0 0-2.11.732l-2.368 2.368c-3.669-1.894-6.585-4.81-8.427-8.372l-.051-.108 2.382-2.377a2.552 2.552 0 0 0 .731-2.122l.001.012-.373-3.243a2.578 2.578 0 0 0-2.557-2.276H6.613c-1.454 0-2.663 1.209-2.574 2.661.683 10.987 9.47 19.762 20.444 20.444 1.452.089 2.663-1.12 2.663-2.574v-2.238a2.549 2.549 0 0 0-2.253-2.532l-.012-.001z"/></symbol><symbol id="email" viewBox="0 0 32 32"><path d="M26.667 5.333H5.334A2.662 2.662 0 0 0 2.682 8l-.014 16c0 1.467 1.2 2.667 2.667 2.667h21.333c1.467 0 2.667-1.2 2.667-2.667V8c0-1.467-1.2-2.667-2.667-2.667zm-.534 5.668-9.426 5.892a1.343 1.343 0 0 1-1.421-.004l.006.003L5.866 11A1.133 1.133 0 1 1 7.07 9.083l-.004-.003 8.933 5.586 8.933-5.588a1.132 1.132 0 1 1 1.204 1.916l-.005.003z"/></symbol><symbol id="square" viewBox="0 0 34 32"><path d="M30.34 3.556v24.887H3.793V3.556H30.34zm0-3.556H3.793C1.707 0 0 1.6 0 3.556v24.887c0 1.956 1.707 3.556 3.793 3.556H30.34c2.086 0 3.793-1.6 3.793-3.556V3.556C34.133 1.6 32.426 0 30.34 0z"/></symbol><symbol id="check" viewBox="0 0 34 32"><path fill="#2196f3" style="fill:var(--color1,#2196f3)" d="M4.267 0h25.6a4.267 4.267 0 0 1 4.267 4.267v23.467a4.267 4.267 0 0 1-4.267 4.267h-25.6A4.267 4.267 0 0 1 0 27.734V4.267A4.267 4.267 0 0 1 4.267 0z"/><path fill="#fff" style="fill:var(--color2,#fff);stroke:var(--color2,#fff)" stroke="#fff" stroke-width=".427" d="m8.442 16.538-.147-.141-.147.139-2.057 1.95.162.156 7.605 7.253.147-.141 16.171-15.426-.162-.154-2.029-1.935-.147.141-13.98 13.325-5.417-5.167z"/></symbol><symbol id="send" viewBox="0 0 32 32"><path d="M32 0 0 18l10.227 3.787L26 7 14.003 23.187l.009.003-.012-.003V32l5.735-6.691L27.002 28l4.999-28z"/></symbol><symbol id="menu" viewBox="0 0 32 32"><path d="M6.4 11.734V9.6h19.2v2.134H6.4zm0 5.332h19.2v-2.133H6.4v2.133zm0 5.334h19.2v-2.134H6.4V22.4z"/></symbol><symbol id="close" viewBox="0 0 32 32"><path d="M23.734 10.304 22.23 8.8l-5.963 5.962L10.305 8.8l-1.504 1.504 5.962 5.962-5.962 5.963 1.504 1.504 5.962-5.963 5.963 5.963 1.504-1.504-5.963-5.963 5.963-5.962z"/></symbol></defs></svg>