<svg aria-hidden="true" style="position: absolute; width: 0; height: 0; overflow: hidden;" version="1.1" xmlns="http://www.w3.org/2000/svg" xmlns:xlink="http://www.w3.org/1999/xlink">
<defs>

<symbol id="telegram" viewBox="0 0 32 32">
<path fill="#29b6f6" style="fill: var(--color3, #29b6f6)" d="M16 2.667c-7.333 0-13.333 6-13.333 13.333s6 13.333 13.333 13.333 13.333-6 13.333-13.333-6-13.333-13.333-13.333z"></path>
<path fill="#fff" style="fill: var(--color1, #fff)" d="M22.667 10l-2.467 12.733c0 0-0.133 0.6-0.8 0.6-0.4 0-0.6-0.2-0.6-0.2l-5.467-4.467-2.667-1.333-3.4-0.933c0 0-0.6-0.2-0.6-0.667 0-0.4 0.6-0.6 0.6-0.6l14.2-5.667c0 0 0.467-0.133 0.733-0.133 0.2 0 0.4 0.067 0.4 0.333 0.067 0.2 0.067 0.333 0.067 0.333z"></path>
<path fill="#b0bec5" style="fill: var(--color4, #b0bec5)" d="M15.333 20.333l-2.267 2.267c0 0-0.067 0.067-0.2 0.067-0.067 0-0.067 0-0.133 0l0.667-4 1.933 1.667z"></path>
<path fill="#cfd8dc" style="fill: var(--color5, #cfd8dc)" d="M19.933 12.133c-0.133-0.133-0.333-0.2-0.467-0.067l-8.8 5.267c0 0 1.4 3.933 1.6 4.6s0.4 0.667 0.4 0.667l0.667-4 6.533-6.067c0.133-0.067 0.2-0.267 0.067-0.4z"></path>
</symbol>

<symbol id="whatsapp" viewBox="0 0 32 32">
<path fill="#f2faff" style="fill: var(--color6, #f2faff)" d="M3.377 23.438l-0.083-0.145c-1.286-2.229-1.967-4.775-1.966-7.364 0.003-8.122 6.614-14.73 14.735-14.73 3.941 0.002 7.642 1.535 10.424 4.319s4.314 6.486 4.314 10.422c-0.004 8.122-6.614 14.731-14.736 14.731-2.466-0.002-4.901-0.621-7.049-1.792l-0.139-0.077-7.508 1.968 2.009-7.334z"></path>
<path fill="#788b9c" style="fill: var(--color7, #788b9c)" d="M16.062 1.6v0c3.833 0.001 7.434 1.494 10.141 4.202s4.197 6.31 4.197 10.139c-0.004 7.902-6.434 14.331-14.342 14.331-2.393-0.001-4.762-0.604-6.851-1.744l-0.279-0.152-6.99 1.833 1.869-6.827-0.166-0.289c-1.253-2.169-1.914-4.646-1.913-7.164 0.003-7.901 6.434-14.33 14.335-14.33zM16.062 0.8c-8.342 0-15.132 6.788-15.136 15.13-0.002 2.666 0.695 5.27 2.020 7.564l-2.146 7.842 8.024-2.104c2.21 1.206 4.7 1.84 7.234 1.842h0.006c8.342 0 15.132-6.788 15.136-15.131 0-4.043-1.573-7.846-4.43-10.706s-6.658-4.434-10.707-4.436v0z"></path>
<path fill="#79ba7e" style="fill: var(--color8, #79ba7e)" d="M15.996 28c-2.003-0.001-3.986-0.506-5.733-1.458l-1.146-0.626-3.856 1.011 0.664-2.424 0.362-1.325-0.687-1.19c-1.047-1.814-1.601-3.886-1.6-5.994 0.003-6.614 5.386-11.994 11.998-11.994 3.209 0.001 6.223 1.25 8.488 3.518 2.266 2.267 3.514 5.282 3.514 8.486-0.003 6.614-5.386 11.996-12.004 11.996z"></path>
<path fill="#fff" style="fill: var(--color1, #fff)" d="M22.624 18.95c-0.36-0.179-2.128-1.050-2.457-1.17-0.33-0.121-0.57-0.179-0.81 0.179-0.24 0.36-0.929 1.17-1.138 1.409s-0.419 0.27-0.779 0.090-1.519-0.56-2.892-1.785c-1.070-0.953-1.791-2.13-2.001-2.49s-0.023-0.554 0.158-0.734c0.162-0.162 0.36-0.42 0.539-0.63s0.24-0.36 0.36-0.6c0.121-0.24 0.060-0.45-0.030-0.63s-0.81-1.95-1.11-2.669c-0.291-0.701-0.589-0.606-0.81-0.617-0.21-0.011-0.45-0.012-0.689-0.012s-0.63 0.090-0.958 0.45-1.258 1.23-1.258 2.999 1.289 3.48 1.468 3.719c0.179 0.24 2.535 3.871 6.144 5.429 0.858 0.37 1.529 0.591 2.050 0.758 0.861 0.274 1.646 0.235 2.266 0.142 0.691-0.103 2.128-0.87 2.427-1.709s0.3-1.56 0.21-1.709c-0.089-0.154-0.328-0.244-0.689-0.423z"></path>
</symbol>

<symbol id="viber" viewBox="0 0 32 32">
<path fill="#fff" style="fill: var(--color1, #fff)" d="M16 3.333c-1.759 0-7.113 0-10.073 2.703-1.763 1.756-2.593 4.293-2.593 7.964v2c0 3.671 0.831 6.208 2.614 7.984 0.888 0.81 2.099 1.457 3.579 1.905l0.474 0.143v3.552c0 0.417 0.121 0.417 0.161 0.417 0.082 0 0.213-0.026 0.463-0.247 0.060-0.059 0.5-0.535 2.64-2.933l0.216-0.242 0.323 0.021c0.717 0.045 1.456 0.068 2.197 0.068 1.759 0 7.113 0 10.073-2.703 1.762-1.756 2.593-4.293 2.593-7.963v-2c0-3.671-0.831-6.208-2.614-7.984-2.939-2.683-8.293-2.683-10.053-2.683z"></path>
<path fill="#7e57c2" style="fill: var(--color2, #7e57c2)" d="M22.301 19.236c-0.741-0.624-1.083-0.813-2.105-1.427-0.426-0.255-1.075-0.476-1.416-0.476-0.233 0-0.511 0.178-0.682 0.349-0.437 0.437-0.581 0.985-1.347 0.985-0.75 0-2.060-0.763-3-1.75-0.987-0.94-1.75-2.25-1.75-3 0-0.767 0.537-0.92 0.975-1.358 0.171-0.17 0.359-0.449 0.359-0.681 0-0.341-0.221-0.98-0.476-1.406-0.614-1.023-0.802-1.365-1.427-2.105-0.211-0.251-0.452-0.365-0.704-0.366-0.426-0.001-0.985 0.211-1.364 0.493-0.569 0.425-1.165 1.003-1.324 1.723-0.021 0.098-0.034 0.197-0.038 0.295-0.031 0.75 0.264 1.511 0.582 2.156 0.749 1.519 1.739 2.99 2.817 4.303 0.345 0.42 0.72 0.811 1.109 1.188 0.377 0.388 0.768 0.763 1.188 1.109 1.313 1.078 2.784 2.069 4.303 2.817 0.639 0.315 1.391 0.604 2.133 0.583 0.106-0.003 0.212-0.015 0.318-0.039 0.72-0.159 1.298-0.755 1.723-1.324 0.282-0.379 0.493-0.937 0.493-1.364-0.001-0.252-0.115-0.493-0.366-0.704zM22.667 16c-0.368 0-0.667-0.299-0.667-0.667v-0.667c0-3.308-2.692-6-6-6-0.368 0-0.667-0.299-0.667-0.667s0.299-0.667 0.667-0.667c4.043 0 7.333 3.29 7.333 7.333v0.667c0 0.368-0.299 0.667-0.667 0.667zM18.572 14.667c-0.296 0-0.567-0.199-0.645-0.499-0.183-0.701-0.729-1.248-1.427-1.428-0.357-0.093-0.571-0.456-0.479-0.813s0.455-0.57 0.813-0.479c1.165 0.302 2.079 1.215 2.383 2.383 0.093 0.357-0.121 0.72-0.477 0.813-0.057 0.015-0.113 0.022-0.169 0.022z"></path>
<path fill="#7e57c2" style="fill: var(--color2, #7e57c2)" d="M20.667 15.333c-0.368 0-0.667-0.299-0.667-0.667 0-2.125-1.663-3.879-3.785-3.991-0.368-0.019-0.65-0.333-0.631-0.701s0.339-0.651 0.701-0.631c2.831 0.149 5.049 2.487 5.049 5.322 0 0.368-0.299 0.667-0.667 0.667z"></path>
<path fill="#7e57c2" style="fill: var(--color2, #7e57c2)" d="M16 2.667c-3 0-7.675 0.276-10.523 2.877-2.013 2.005-2.811 4.817-2.811 8.456 0 0.301-0.001 0.637 0.001 1-0.003 0.362-0.001 0.698-0.001 0.999 0 3.639 0.797 6.451 2.811 8.456 1.084 0.99 2.436 1.641 3.856 2.071v3.057c0 1.064 0.699 1.083 0.827 1.083h0.006c0.329-0.001 0.614-0.163 0.899-0.416 0.107-0.095 1.347-1.477 2.695-2.987 0.803 0.051 1.565 0.070 2.239 0.070 0 0 0 0 0 0s0 0 0 0c3 0 7.674-0.277 10.523-2.878 2.013-2.004 2.811-4.817 2.811-8.456 0-0.301 0.001-0.637-0.001-1 0.003-0.363 0.001-0.698 0.001-1 0-3.639-0.797-6.451-2.811-8.456-2.848-2.601-7.522-2.877-10.522-2.877zM27.333 15.767v0.232c0 3.271-0.697 5.499-2.191 7.008-2.588 2.326-7.518 2.326-9.143 2.326-0.495 0-1.297-0.001-2.245-0.067-0.263 0.296-3.088 3.455-3.088 3.455v-3.909c-1.403-0.337-2.789-0.889-3.809-1.805-1.494-1.509-2.191-3.738-2.191-7.009v-0.232c0-0.234-0.001-0.487 0.001-0.782-0.002-0.267-0.002-0.519-0.001-0.753v-0.232c0-3.271 0.697-5.499 2.191-7.008 2.587-2.326 7.518-2.326 9.143-2.326s6.555 0 9.142 2.326c1.495 1.509 2.191 3.737 2.191 7.008v0.232c0 0.234 0.001 0.487-0.001 0.782 0.002 0.267 0.002 0.519 0.002 0.753z"></path>
</symbol>

<symbol id="vector" viewBox="0 0 20 32">
<path d="M17 0h-14c-1.654 0-3 1.346-3 3v26c0 1.654 1.346 3 3 3h14c1.654 0 3-1.346 3-3v-26c0-1.654-1.346-3-3-3zM3 2h14c0.552 0 1 0.448 1 1v0 21h-16v-21c0-0.552 0.448-1 1-1v0zM17 30h-14c-0.552 0-1-0.448-1-1v0-3h16v3c0 0.552-0.448 1-1 1v0z"></path>
</symbol>
<symbol id="close" viewBox="0 0 32 32">
<path d="M26.667 7.303l-1.97-1.97-7.808 7.808-7.808-7.808-1.97 1.97 7.808 7.808-7.808 7.808 1.97 1.97 7.808-7.808 7.808 7.808 1.97-1.97-7.808-7.808 7.808-7.808z"></path>
</symbol>
<symbol id="person" viewBox="0 0 32 32">
<path d="M16 16c2.946 0 5.333-2.388 5.333-5.333s-2.388-5.333-5.333-5.333v0c-2.946 0-5.333 2.388-5.333 5.333s2.388 5.333 5.333 5.333v0zM16 18.667c-3.561 0-10.667 1.787-10.667 5.333v1.333c0 0.732 0.599 1.333 1.333 1.333h18.667c0.732 0 1.333-0.601 1.333-1.333v-1.333c0-3.547-7.108-5.333-10.667-5.333z"></path>
</symbol>
<symbol id="phone" viewBox="0 0 32 32">
<path d="M24.882 19.774l-3.268-0.373c-0.090-0.011-0.194-0.018-0.3-0.018-0.707 0-1.347 0.287-1.81 0.75l-2.368 2.368c-3.669-1.894-6.585-4.81-8.427-8.372l-0.051-0.108 2.382-2.377c0.463-0.463 0.75-1.103 0.75-1.81 0-0.106-0.006-0.21-0.019-0.312l0.001 0.012-0.373-3.243c-0.155-1.287-1.24-2.276-2.557-2.276-0.001 0-0.002 0-0.003 0h-2.226c-1.454 0-2.663 1.209-2.574 2.661 0.683 10.987 9.47 19.762 20.444 20.444 1.452 0.089 2.663-1.12 2.663-2.574v-2.226c0-0.004 0-0.008 0-0.012 0-1.308-0.985-2.386-2.253-2.532l-0.012-0.001z"></path>
</symbol>
<symbol id="email" viewBox="0 0 32 32">
<path d="M26.667 5.333h-21.333c-1.467 0-2.652 1.2-2.652 2.667l-0.014 16c0 1.467 1.2 2.667 2.667 2.667h21.333c1.467 0 2.667-1.2 2.667-2.667v-16c0-1.467-1.2-2.667-2.667-2.667zM26.133 11.001l-9.426 5.892c-0.201 0.126-0.446 0.2-0.708 0.2s-0.506-0.075-0.713-0.204l0.006 0.003-9.426-5.892c-0.336-0.201-0.557-0.562-0.557-0.975 0-0.625 0.507-1.132 1.132-1.132 0.233 0 0.449 0.070 0.629 0.19l-0.004-0.003 8.933 5.586 8.933-5.588c0.176-0.118 0.392-0.188 0.624-0.188 0.625 0 1.132 0.507 1.132 1.132 0 0.413-0.221 0.775-0.552 0.972l-0.005 0.003z"></path>
</symbol>
<symbol id="square" viewBox="0 0 34 32">
<path d="M30.34 3.556v24.887h-26.547v-24.887h26.547zM30.34 0h-26.547c-2.086 0-3.793 1.6-3.793 3.556v24.887c0 1.956 1.707 3.556 3.793 3.556h26.547c2.086 0 3.793-1.6 3.793-3.556v-24.887c0-1.956-1.707-3.556-3.793-3.556z"></path>
</symbol>
<symbol id="check" viewBox="0 0 34 32">
<path fill="#2196f3" style="fill: var(--color1, #2196f3)" d="M4.267 0h25.6c2.356 0 4.267 1.91 4.267 4.267v23.467c0 2.356-1.91 4.267-4.267 4.267h-25.6c-2.356 0-4.267-1.91-4.267-4.267v-23.467c0-2.356 1.91-4.267 4.267-4.267z"></path>
<path fill="#fff" style="fill: var(--color2, #fff); stroke: var(--color2, #fff)" stroke="#fff" stroke-linejoin="miter" stroke-linecap="butt" stroke-miterlimit="4" stroke-width="0.4267" d="M8.442 16.538l-0.147-0.141-0.147 0.139-2.057 1.95 0.162 0.156 7.605 7.253 0.147-0.141 16.171-15.426-0.162-0.154-2.029-1.935-0.147 0.141-13.98 13.325-5.417-5.167z"></path>
</symbol>
<symbol id="send" viewBox="0 0 32 32">
<path d="M32 0l-32 18 10.227 3.787 15.773-14.787-11.997 16.187 0.009 0.003-0.012-0.003v8.813l5.735-6.691 7.267 2.691 4.999-28z"></path>
</symbol>
<symbol id="menu" viewBox="0 0 32 32">
<path d="M6.4 11.734v-2.134h19.2v2.134h-19.2zM6.4 17.066h19.2v-2.133h-19.2v2.133zM6.4 22.4h19.2v-2.134h-19.2v2.134z"></path>
</symbol>
<symbol id="close" viewBox="0 0 32 32">
<path d="M23.734 10.304l-1.504-1.504-5.963 5.962-5.962-5.962-1.504 1.504 5.962 5.962-5.962 5.963 1.504 1.504 5.962-5.963 5.963 5.963 1.504-1.504-5.963-5.963 5.963-5.962z"></path>
</symbol>

</defs>
</svg>